<?xml version="1.0" encoding="UTF-8"?>
<svg width="62.403mm" height="62.403mm" clip-rule="evenodd" fill-rule="evenodd" image-rendering="optimizeQuality" shape-rendering="geometricPrecision" text-rendering="geometricPrecision" version="1.1" viewBox="0 0 53451 53451" xml:space="preserve" xmlns="http://www.w3.org/2000/svg" xmlns:xlink="http://www.w3.org/1999/xlink">
 <defs>
  <style type="text/css">
   <![CDATA[
    .fil8 {fill:#FEFEFE}
    .fil7 {fill:#FFF1CD}
    .fil6 {fill:#FFE497}
    .fil5 {fill:#FFD858}
    .fil4 {fill:#FECC00;fill-rule:nonzero}
    .fil0 {fill:#0F1436;fill-rule:nonzero}
    .fil3 {fill:#131947;fill-rule:nonzero}
    .fil1 {fill:#192156;fill-rule:nonzero}
    .fil2 {fill:#222B69;fill-rule:nonzero}
   ]]>
  </style>
  <radialGradient id="radialGradient883" cx="13338" cy="12957" r="11539" gradientTransform="matrix(-.0016482 2.4198 -2.2569 .0019982 56285 -6414.2)" gradientUnits="userSpaceOnUse"><stop stop-opacity="0" offset="0"/><stop offset="1"/></radialGradient></defs>
 <polygon class="fil0" points="0 0 53451 0 53451 53451 0 53451"/><path class="fil1" d="m53451 52120c-16527 82.859-30638 194.75-30638 194.75-1401.7 0-3693.6 40.401-5090.5 40.401l-13859 533.57c-1372.7-230.07-2624.4-2101.2-2746-4197.3 0 0-563.96-8937.4-563.96-22146 0-5081-128.54-9433.8-228.12-13024-278.55-7483.8-150.65-8970.6-150.65-8970.6 174.22-2022.5 581.31-3667.8 890.2-3667.8l1092.7 113.95c2036.9 230.07 5987.6 422.76 11592-227.89 8605.1-955.24 29722 268.3 34691-459.05 1234.4-179.27 3021.1-272.53 5011-310.87v52120z" stroke-width="9.8797"/>
<rect width="53451" height="53451" fill="url(#radialGradient883)" opacity=".1853" stroke-width="537.77" style="mix-blend-mode:normal"/><path class="fil4" d="m25201 25483h-4091.2v-10425c0-2124.2-354.18-3658.5-1062.2-4602.8-865.54-1180.2-2386.6-1770.2-4563.5-1770.2-2176.8 0-3711.1 589.99-4602.7 1770.2-708.28 944.26-1062.3 2478.5-1062.3 4602.8v10425h-4091.5v-10405c0-6963.2 3252.3-10445 9756.4-10445 6478.1 0 9717 3481.6 9717 10445zm22424 0h-9717c-6504.4 0-9756.4-3468.5-9756.4-10405 0-6963.2 3252.1-10445 9756.4-10445 6478 0 9717 3474.9 9717 10432v2039.1h-15264c419.62 2884.9 2268.6 4327.5 5547 4327.5h9717zm-4209.5-12431c-419.54-2911.2-2255.4-4366.8-5507.4-4366.8-3278.4 0-5127.4 1455.5-5547 4366.8h11054zm-18195 25362c0 6936.9-3239.1 10405-9717 10405-6504.4 0-9756.4-3468.5-9756.4-10405 0-6963.2 3252.1-10445 9756.4-10445 6477.8 0 9717 3481.4 9717 10445zm-4091.5 0c0-2130.9-362.06-3668-1062.2-4616.1-871.28-1180.2-2386.6-1776.5-4563.3-1776.5-2176.9 0-3692.2 596.24-4563.4 1776.5-699.97 948.12-1062.3 2485.2-1062.3 4616.1 0 2130.7 356.58 3672.1 1062.3 4615.9 865.46 1158.1 2386.5 1737.5 4563.4 1737.5 2176.7 0 3697.6-579.37 4563.3-1737.5 705.45-944 1062.2-2485.2 1062.2-4615.9zm26594 10405h-4091.2v-10425c0-2124.2-361.21-3655.5-1062.2-4602.8-869.91-1174.7-2386.6-1770-4563.5-1770s-3714.3 589.73-4602.8 1770c-708.71 941.52-1062.2 2481.2-1062.2 4602.8v10425h-4091.5v-10405c0-6963.2 3252.3-10445 9756.4-10445 6478.1 0 9717 3484.1 9717 10445v10405z"/>
   <path class="fil5" d="m24739 25020v-9942.8c0-6333.7-2700.1-9982.3-9254.4-9982.3-6563.3 0-9293.9 3627.6-9293.9 9982.3v9942.8h3166.4v-9962.7c0-1567.4 178.93-3584.5 1155.3-4881 1166.9-1549.5 3134.4-1954.6 4972.2-1954.6 1829 0 3785.1 404.72 4935.2 1957.5 967.56 1306.3 1153.1 3305.8 1153.1 4878v9962.7h3166.2zm22424 0v-3126.9h-9254.4c-3244.9 0-5518.8-1383-6004.8-4723.4l-76.92-529.09h15336v-1576.6c0-6333.1-2704.8-9969.1-9254.4-9969.1-6563.5 0-9293.9 3627.5-9293.9 9982.3 0 6349.4 2747.8 9942.8 9293.9 9942.8h9254.4zm-3213-11506h-12122l76.15-528.49c483.18-3352 2739.8-4763.4 6004.8-4763.4 3258.8 0 5484.5 1427 5965.3 4763.4zm-19191 24899c0-6333.6-2700.3-9982.1-9254.4-9982.1-6563.4 0-9293.9 3627.2-9293.9 9982.1 0 6349.4 2747.8 9942.8 9293.9 9942.8 6536.9 0 9254.4-3614.6 9254.4-9942.8zm-3166.4 0c0 1569.5-181.85 3591.7-1154.3 4892.8-1148.1 1536.2-3122.3 1923.1-4933.7 1923.1-1811.5 0-3785.6-386.99-4933.9-1923.1-972.53-1300.9-1154.4-3323.3-1154.4-4892.8 0-1573.4 186.64-3582.3 1152.8-4890.8 1149.3-1557 3103.5-1964.3 4935.5-1964.3s3786 407.55 4935.4 1964.3c966.1 1308.5 1152.7 3317.4 1152.7 4890.8zm25669 9942.8v-9942.8c0-6332.3-2701.4-9982.1-9254.4-9982.1-6563.3 0-9293.9 3627.3-9293.9 9982.1v9942.8h3166.4v-9962.7c0-1565.4 180.39-3585.9 1155.2-4881 1165.8-1548.7 3135.7-1954.3 4972.3-1954.3 1827.7 0 3786.2 405.15 4935.3 1957.3 966.62 1305.7 1153 3306.6 1153 4878v9962.7z"/>
   <path class="fil6" d="m24276 24558v-9480.3c0-6077.6-2497.7-9519.8-8791.9-9519.8-6303.4 0-8831.4 3421.2-8831.4 9519.8v9480.3h2241.3v-9500.2c0-1683.1 201.8-3769.4 1248.4-5159.3 1261.2-1674.8 3348.2-2138.8 5341.6-2138.8 1986.1 0 4062.5 464.59 5306.9 2144.7 1035.6 1398.2 1243.9 3467.6 1243.9 5153.4v9500.2zm22424 0v-2201.8h-8791.9c-3476.1 0-5943-1548.3-6462.5-5119.3l-153.92-1058.3h15408v-1114c0-6077-2502.4-9506.6-8791.9-9506.6-6303.6 0-8831.4 3421.1-8831.4 9519.8 0 6093.4 2545 9480.3 8831.4 9480.3zm-2216.5-10581h-13190l152.29-1057.1c516.41-3582.6 2966.2-5159.9 6462.7-5159.9 3490 0 5909.1 1593.2 6423.1 5159.9l152.29 1057zm-20188 24437c0-6077.5-2497.9-9519.5-8791.9-9519.5-6303.5 0-8831.4 3420.7-8831.4 9519.5 0 6093.4 2545 9480.3 8831.4 9480.3 6277 0 8791.9-3408 8791.9-9480.3zm-2241.3 0c0 1684.4-204.46 3775.8-1246.3 5169.7-1243.3 1663.4-3335.6 2108.7-5304.3 2108.7s-4061-445.41-5304.4-2108.7c-1041.9-1393.8-1246.4-3485.3-1246.4-5169.7 0-1686.7 209.34-3765.2 1243.1-5165.5 1243.6-1684.5 3318.4-2152.2 5307.7-2152.2s4063.9 467.76 5307.4 2152.1c1033.9 1400.4 1243.1 3478.9 1243.1 5165.6zm24744 9480.3v-9480.3c0-6076.2-2499-9519.5-8791.9-9519.5-6303.4 0-8831.4 3420.8-8831.4 9519.5v9480.3h2241.3v-9500.2c0-1681.2 203.17-3770.8 1248.2-5159.1 1260.3-1674.3 3349.6-2138.7 5341.9-2138.7 1984.8 0 4063.6 465.11 5307 2144.6 1034.7 1397.6 1243.8 3468.3 1243.8 5153.2v9500.2h2241.1z"/>
   <path class="fil7" d="m23814 24095v-9017.8c0-5819.1-2298.4-9057.2-8329.4-9057.2-6040.5 0-8368.8 3217-8368.8 9057.2v9017.8h1316.3v-9037.6c0-1797.2 225.53-3955.6 1341.4-5437.5 1354.9-1799.2 3563.2-2323.1 5711.1-2323.1 2141.7 0 4340.8 525.84 5678.6 2332 1102.9 1489 1334.8 3630.8 1334.8 5428.6v9037.6h1316zm22424 0v-1276.8h-8329.4c-3707.4 0-6367.2-1714.1-6920.2-5515.3l-230.93-1587.4h15480v-651.49c0-5818.5-2303-9044.1-8329.4-9044.1-6040.6 0-8368.8 3216.9-8368.8 9057.2 0 5835.1 2345.2 9017.8 8368.8 9017.8zm-1220-9656.2h-14258l228.53-1585.6c549.56-3812.8 3192.7-5556.4 6920.4-5556.4 3721.1 0 6333.8 1759.9 6880.8 5556.4l228.53 1585.6zm-21184 23974c0-5819.1-2298.6-9057-8329.4-9057-6040.6 0-8368.8 3216.6-8368.8 9057 0 5835.1 2345.2 9017.8 8368.8 9017.8 6014 0 8329.4-3203.9 8329.4-9017.8zm-1316.3 0c0 1797.7-228.1 3961.1-1338.4 5446.6-1337.3 1789.3-3550.4 2294.4-5674.7 2294.4s-4337.4-505.11-5674.9-2294.4c-1110.4-1485.4-1338.4-3648.9-1338.4-5446.6 0-1798.4 232.81-3949.3 1333.6-5440.3 1336.8-1810.8 3534.6-2339.9 5679.8-2339.9 2145.1 0 4342.7 529.26 5679.6 2339.9 1100.8 1491 1333.5 3641.8 1333.5 5440.3zm23819 9017.8v-9017.8c0-5817.8-2299.7-9057-8329.4-9057-6040.4 0-8368.8 3216.7-8368.8 9057v9017.8h1316.3v-9037.6c0-1795.2 226.9-3957 1341.2-5437.3 1353.8-1798.5 3564.9-2323 5711.4-2323 2140.5 0 4342 526.26 5678.8 2332 1101.9 1488.3 1334.6 3631.6 1334.6 5428.4v9037.6h1316z"/>
   <path class="fil8" d="m23351 23633v-8555.2c0-5563.4-2097.4-8594.7-7866.8-8594.7-5779.3 0-7906.3 3010.3-7906.3 8594.7v8555.2h391.19v-8575.1c0-1909.9 250.03-4142.9 1434.5-5715.8 1447.7-1922.4 3779.6-2507.4 6080.6-2507.4 2296.3 0 4619.7 587.76 6050.2 2519.2 1169.4 1578.7 1425.6 3795.5 1425.6 5703.9v8575.1zm22424 0v-351.7h-7866.8c-3938.5 0-6791.6-1880.4-7377.9-5911.3l-307.84-2116.4h15553v-188.95c0-5562.9-2101.8-8581.5-7866.8-8581.5-5779.5 0-7906.3 3010.1-7906.3 8594.7 0 5579.3 2143.4 8555.2 7906.3 8555.2h7866.8zm-223.47-8731.2h-15326l304.76-2114.1c582.71-4042.4 3419.4-5952.9 7378.2-5952.9 3952.1 0 6758.5 1927 7338.7 5953l304.67 2114zm-22181 23512c0-5563.4-2097.5-8594.4-7866.8-8594.4-5779.4 0-7906.3 3009.8-7906.3 8594.4 0 5579.3 2143.4 8555.2 7906.3 8555.2 5752.8 0 7866.8-2997.2 7866.8-8555.2zm-391.19 0c0 1909.8-252.43 4147.4-1430.4 5723.5-1430.5 1914-3766.4 2480.1-6045.2 2480.1s-4614.7-566.01-6045.4-2480c-1178-1576-1430.5-3813.8-1430.5-5723.6 0-1908.9 257.05-4134.3 1423.9-5715 1429.4-1936.2 3752.1-2527.8 6052-2527.8 2299.7 0 4622.3 591.7 6051.7 2527.7 1167 1580.7 1423.9 3806.1 1423.9 5715.1zm22894 8555.2v-8555.2c0-5562.1-2098.6-8594.4-7866.8-8594.4-5779.3 0-7906.3 3009.9-7906.3 8594.4v8555.2h391.19v-8575.1c0-1907.9 251.48-4144.2 1434.2-5715.4 1446.7-1922 3781-2507.5 6080.9-2507.5 2295 0 4621.1 588.45 6050.5 2519.3 1168.2 1578 1425.4 3796.2 1425.4 5703.6v8575.1h390.93z"/>
  </svg>
